<?xml version="1.0" encoding="UTF-8" standalone="no" ?>
<!DOCTYPE svg PUBLIC "-//W3C//DTD SVG 1.1//EN" "http://www.w3.org/Graphics/SVG/1.1/DTD/svg11.dtd">
<svg xmlns="http://www.w3.org/2000/svg" xmlns:xlink="http://www.w3.org/1999/xlink" version="1.1" width="350" height="350" viewBox="0 0 350 350" xml:space="preserve">
<desc>Created with Fabric.js 1.7.22</desc>
<defs>
</defs>
<g id="icon" style="stroke: none; stroke-width: 1; stroke-dasharray: none; stroke-linecap: butt; stroke-linejoin: miter; stroke-miterlimit: 10; fill: none; fill-rule: nonzero; opacity: 1;" transform="translate(-1.9444444444444287 -1.9444444444444287) scale(3.89 3.89)" >
	<path d="M 58.799 58.33 L 16.466 15.998 c -1.059 -1.059 -2.776 -1.059 -3.835 0 L 0.794 27.834 c -1.059 1.059 -1.059 2.776 0 3.835 l 42.333 42.333 c 1.059 1.059 2.776 1.059 3.835 0 l 11.837 -11.837 C 59.858 61.107 59.858 59.39 58.799 58.33 z" style="stroke: none; stroke-width: 1; stroke-dasharray: none; stroke-linecap: butt; stroke-linejoin: miter; stroke-miterlimit: 10; fill: rgb(255,255,255); fill-rule: nonzero; opacity: 1;" transform=" matrix(1 0 0 1 0 0) " stroke-linecap="round" />
	<path d="M 31.201 58.33 l 42.333 -42.333 c 1.059 -1.059 2.776 -1.059 3.835 0 l 11.837 11.837 c 1.059 1.059 1.059 2.776 0 3.835 L 46.873 74.002 c -1.059 1.059 -2.776 1.059 -3.835 0 L 31.201 62.166 C 30.142 61.107 30.142 59.39 31.201 58.33 z" style="stroke: none; stroke-width: 1; stroke-dasharray: none; stroke-linecap: butt; stroke-linejoin: miter; stroke-miterlimit: 10; fill: rgb(255,255,255); fill-rule: nonzero; opacity: 1;" transform=" matrix(1 0 0 1 0 0) " stroke-linecap="round" />
</g>
</svg>